<?xml version="1.0" ?><svg height="32" id="svg17515" version="1.1" viewBox="0 0 32 32.000001" width="32" xmlns="http://www.w3.org/2000/svg" xmlns:cc="http://creativecommons.org/ns#" xmlns:dc="http://purl.org/dc/elements/1.1/" xmlns:inkscape="http://www.inkscape.org/namespaces/inkscape" xmlns:rdf="http://www.w3.org/1999/02/22-rdf-syntax-ns#" xmlns:sodipodi="http://sodipodi.sourceforge.net/DTD/sodipodi-0.dtd" xmlns:svg="http://www.w3.org/2000/svg"><defs id="defs17517"><clipPath clipPathUnits="userSpaceOnUse" id="clipPath32617-9-8-8-9"><circle cx="-64.623535" cy="50.047192" id="path32619-2-3-5-1" r="38.553814" style="fill:#4bb7c0;fill-opacity:1;stroke:none" transform="matrix(9.3443438,0,0,9.3443438,-627.91229,-5859.5225)"/></clipPath><clipPath clipPathUnits="userSpaceOnUse" id="clipPath19550"><circle cx="-64.623535" cy="50.047192" id="circle19552" r="38.553814" style="fill:#4bb7c0;fill-opacity:1;stroke:none" transform="matrix(9.3443438,0,0,9.3443438,-627.91229,-5859.5225)"/></clipPath></defs><g id="layer1" transform="translate(0,-1020.3622)"><g id="g42769" style="display:inline" transform="translate(446.11798,157.76367)"><g id="g41811"><g id="g41779"><path d="m -437.61719,865.59853 -2,4.5 0,2.5 0,13.5 0,5.5 4,0 0,-5.5 0,-13.5 0,-2.5 z" id="path41758" style="fill:#cc8634;fill-opacity:1;fill-rule:evenodd;stroke:none;stroke-width:0.99999994px;stroke-linecap:butt;stroke-linejoin:round;stroke-opacity:1"/><path d="m -430.11719,865.59853 -2,4.5 0,2.5 0,13.5 0,5.5 4,0 0,-5.5 0,-13.5 0,-2.5 z" id="path41756" style="fill:#cc8634;fill-opacity:1;fill-rule:evenodd;stroke:none;stroke-width:0.99999994px;stroke-linecap:butt;stroke-linejoin:round;stroke-opacity:1"/><path d="m -422.61719,865.59853 -2,4.5 0,2.5 0,13.5 0,5.5 4,0 0,-5.5 0,-13.5 0,-2.5 z" id="path147599" style="fill:#cc8634;fill-opacity:1;fill-rule:evenodd;stroke:none;stroke-width:0.99999994px;stroke-linecap:butt;stroke-linejoin:round;stroke-opacity:1"/><path d="m -439.61719,875.59853 0,0.84375 4,0 0,-0.84375 z" id="path41740" style="opacity:1;fill:#b87c35;fill-opacity:1;fill-rule:evenodd;stroke:none;stroke-width:1px;stroke-linecap:butt;stroke-linejoin:round;stroke-opacity:1"/><path d="m -432.11719,875.59853 0,0.84375 4,0 0,-0.84375 z" id="path41738" style="opacity:1;fill:#b87c35;fill-opacity:1;fill-rule:evenodd;stroke:none;stroke-width:1px;stroke-linecap:butt;stroke-linejoin:round;stroke-opacity:1"/><path d="m -424.61719,875.59853 0,0.84375 4,0 0,-0.84375 z" id="path41717" style="opacity:1;fill:#b87c35;fill-opacity:1;fill-rule:evenodd;stroke:none;stroke-width:1px;stroke-linecap:butt;stroke-linejoin:round;stroke-opacity:1"/><path d="m -443.11798,875.59855 0,-3.0001 26,0 0,3.0001 z" id="path10166-5" style="fill:#e79b28;fill-opacity:1;fill-rule:evenodd;stroke:none;stroke-width:1px;stroke-linecap:butt;stroke-linejoin:round;stroke-opacity:1"/><path d="m -443.11798,886.09855 0,-3.0001 26,0 0,3.0001 z" id="path41723" style="fill:#e79b28;fill-opacity:1;fill-rule:evenodd;stroke:none;stroke-width:1px;stroke-linecap:butt;stroke-linejoin:round;stroke-opacity:1"/><path d="m -439.61719,886.09853 0,0.84375 4,0 0,-0.84375 z" id="path41752" style="opacity:1;fill:#b87c35;fill-opacity:1;fill-rule:evenodd;stroke:none;stroke-width:1px;stroke-linecap:butt;stroke-linejoin:round;stroke-opacity:1"/><path d="m -432.11719,886.09853 0,0.84375 4,0 0,-0.84375 z" id="path41750" style="opacity:1;fill:#b87c35;fill-opacity:1;fill-rule:evenodd;stroke:none;stroke-width:1px;stroke-linecap:butt;stroke-linejoin:round;stroke-opacity:1"/><path d="m -424.61719,886.09853 0,0.84375 4,0 0,-0.84375 z" id="path41725" style="opacity:1;fill:#b87c35;fill-opacity:1;fill-rule:evenodd;stroke:none;stroke-width:1px;stroke-linecap:butt;stroke-linejoin:round;stroke-opacity:1"/></g><path d="m -437.08594,874.09851 a 0.53125,0.53125 0 0 1 -0.53125,0.53125 0.53125,0.53125 0 0 1 -0.53125,-0.53125 0.53125,0.53125 0 0 1 0.53125,-0.53125 0.53125,0.53125 0 0 1 0.53125,0.53125 z" id="path41781" style="opacity:1;fill:#ce8d2b;fill-opacity:1;stroke:none;stroke-width:0.08;stroke-linecap:round;stroke-linejoin:round;stroke-miterlimit:4;stroke-dasharray:none;stroke-opacity:1"/><path d="m -429.58594,874.09851 a 0.53125,0.53125 0 0 1 -0.53125,0.53125 0.53125,0.53125 0 0 1 -0.53125,-0.53125 0.53125,0.53125 0 0 1 0.53125,-0.53125 0.53125,0.53125 0 0 1 0.53125,0.53125 z" id="circle41783" style="opacity:1;fill:#ce8d2b;fill-opacity:1;stroke:none;stroke-width:0.08;stroke-linecap:round;stroke-linejoin:round;stroke-miterlimit:4;stroke-dasharray:none;stroke-opacity:1"/><path d="m -422.08594,874.09851 a 0.53125,0.53125 0 0 1 -0.53125,0.53125 0.53125,0.53125 0 0 1 -0.53125,-0.53125 0.53125,0.53125 0 0 1 0.53125,-0.53125 0.53125,0.53125 0 0 1 0.53125,0.53125 z" id="circle41785" style="opacity:1;fill:#ce8d2b;fill-opacity:1;stroke:none;stroke-width:0.08;stroke-linecap:round;stroke-linejoin:round;stroke-miterlimit:4;stroke-dasharray:none;stroke-opacity:1"/><path d="m -437.08594,884.59851 a 0.53125,0.53125 0 0 1 -0.53125,0.53125 0.53125,0.53125 0 0 1 -0.53125,-0.53125 0.53125,0.53125 0 0 1 0.53125,-0.53125 0.53125,0.53125 0 0 1 0.53125,0.53125 z" id="circle41787" style="opacity:1;fill:#ce8d2b;fill-opacity:1;stroke:none;stroke-width:0.08;stroke-linecap:round;stroke-linejoin:round;stroke-miterlimit:4;stroke-dasharray:none;stroke-opacity:1"/><path d="m -429.58594,884.59851 a 0.53125,0.53125 0 0 1 -0.53125,0.53125 0.53125,0.53125 0 0 1 -0.53125,-0.53125 0.53125,0.53125 0 0 1 0.53125,-0.53125 0.53125,0.53125 0 0 1 0.53125,0.53125 z" id="circle41789" style="opacity:1;fill:#ce8d2b;fill-opacity:1;stroke:none;stroke-width:0.08;stroke-linecap:round;stroke-linejoin:round;stroke-miterlimit:4;stroke-dasharray:none;stroke-opacity:1"/><path d="m -422.08594,884.59851 a 0.53125,0.53125 0 0 1 -0.53125,0.53125 0.53125,0.53125 0 0 1 -0.53125,-0.53125 0.53125,0.53125 0 0 1 0.53125,-0.53125 0.53125,0.53125 0 0 1 0.53125,0.53125 z" id="circle41791" style="opacity:1;fill:#ce8d2b;fill-opacity:1;stroke:none;stroke-width:0.08;stroke-linecap:round;stroke-linejoin:round;stroke-miterlimit:4;stroke-dasharray:none;stroke-opacity:1"/></g></g></g></svg>